<mxfile host="app.diagrams.net" modified="2020-11-05T16:38:08.715Z" agent="5.0 (Windows)" etag="eDRilUA961xh6WtKqtQw" version="13.9.1" type="github">
  <diagram id="sJmJqWJVJdlw4mypusqy" name="Page-1">
    <mxGraphModel dx="1267" dy="543" grid="1" gridSize="10" guides="1" tooltips="1" connect="1" arrows="1" fold="1" page="1" pageScale="1" pageWidth="1169" pageHeight="827" math="0" shadow="0">
      <root>
        <mxCell id="0" />
        <mxCell id="1" parent="0" />
        <mxCell id="Jt-R9U7Ucblp3WmaqdIi-6" value="2: Atualiza os dados dos alunos" style="html=1;verticalAlign=bottom;endArrow=block;" parent="1" edge="1">
          <mxGeometry width="80" relative="1" as="geometry">
            <mxPoint x="89.5" y="199" as="sourcePoint" />
            <mxPoint x="325" y="199" as="targetPoint" />
            <Array as="points">
              <mxPoint x="180" y="199" />
            </Array>
          </mxGeometry>
        </mxCell>
        <mxCell id="Jt-R9U7Ucblp3WmaqdIi-14" value="4: Emite dados de bloqueio e desbloqueio" style="html=1;verticalAlign=bottom;endArrow=block;exitX=0.51;exitY=0.402;exitDx=0;exitDy=0;exitPerimeter=0;" parent="1" source="Jt-R9U7Ucblp3WmaqdIi-8" target="Jt-R9U7Ucblp3WmaqdIi-13" edge="1">
          <mxGeometry width="80" relative="1" as="geometry">
            <mxPoint x="585" y="210" as="sourcePoint" />
            <mxPoint x="721.5" y="210" as="targetPoint" />
            <Array as="points" />
          </mxGeometry>
        </mxCell>
        <mxCell id="Jt-R9U7Ucblp3WmaqdIi-4" value="1: Envia dados do alunos" style="html=1;verticalAlign=bottom;endArrow=block;" parent="1" source="Jt-R9U7Ucblp3WmaqdIi-1" target="Jt-R9U7Ucblp3WmaqdIi-5" edge="1">
          <mxGeometry width="80" relative="1" as="geometry">
            <mxPoint x="120" y="150" as="sourcePoint" />
            <mxPoint x="220" y="130" as="targetPoint" />
            <Array as="points">
              <mxPoint x="180" y="130" />
            </Array>
          </mxGeometry>
        </mxCell>
        <mxCell id="Jt-R9U7Ucblp3WmaqdIi-3" value=":Dado" style="shape=umlLifeline;perimeter=lifelinePerimeter;whiteSpace=wrap;html=1;container=1;collapsible=0;recursiveResize=0;outlineConnect=0;" parent="1" vertex="1">
          <mxGeometry x="280" y="40" width="100" height="430" as="geometry" />
        </mxCell>
        <mxCell id="Jt-R9U7Ucblp3WmaqdIi-5" value="" style="html=1;points=[];perimeter=orthogonalPerimeter;" parent="Jt-R9U7Ucblp3WmaqdIi-3" vertex="1">
          <mxGeometry x="45" y="80" width="10" height="50" as="geometry" />
        </mxCell>
        <mxCell id="Jt-R9U7Ucblp3WmaqdIi-7" value="" style="html=1;points=[];perimeter=orthogonalPerimeter;" parent="Jt-R9U7Ucblp3WmaqdIi-3" vertex="1">
          <mxGeometry x="45" y="150" width="10" height="50" as="geometry" />
        </mxCell>
        <mxCell id="gciB_Id87dPa8qDstbcZ-2" value="" style="html=1;points=[];perimeter=orthogonalPerimeter;" vertex="1" parent="Jt-R9U7Ucblp3WmaqdIi-3">
          <mxGeometry x="45" y="250" width="10" height="50" as="geometry" />
        </mxCell>
        <mxCell id="Jt-R9U7Ucblp3WmaqdIi-1" value="Funcionário" style="shape=umlLifeline;participant=umlActor;perimeter=lifelinePerimeter;whiteSpace=wrap;html=1;container=1;collapsible=0;recursiveResize=0;verticalAlign=top;spacingTop=36;outlineConnect=0;" parent="1" vertex="1">
          <mxGeometry x="80" y="40" width="20" height="440" as="geometry" />
        </mxCell>
        <mxCell id="Jt-R9U7Ucblp3WmaqdIi-2" value="" style="html=1;points=[];perimeter=orthogonalPerimeter;" parent="Jt-R9U7Ucblp3WmaqdIi-1" vertex="1">
          <mxGeometry x="5" y="90" width="10" height="340" as="geometry" />
        </mxCell>
        <mxCell id="Jt-R9U7Ucblp3WmaqdIi-8" value="&lt;div&gt;:Cartao&lt;/div&gt;" style="shape=umlLifeline;perimeter=lifelinePerimeter;whiteSpace=wrap;html=1;container=1;collapsible=0;recursiveResize=0;outlineConnect=0;" parent="1" vertex="1">
          <mxGeometry x="510" y="40" width="100" height="430" as="geometry" />
        </mxCell>
        <mxCell id="Jt-R9U7Ucblp3WmaqdIi-9" value="" style="html=1;points=[];perimeter=orthogonalPerimeter;" parent="Jt-R9U7Ucblp3WmaqdIi-8" vertex="1">
          <mxGeometry x="45" y="80" width="10" height="50" as="geometry" />
        </mxCell>
        <mxCell id="Jt-R9U7Ucblp3WmaqdIi-10" value="" style="html=1;points=[];perimeter=orthogonalPerimeter;" parent="Jt-R9U7Ucblp3WmaqdIi-8" vertex="1">
          <mxGeometry x="45" y="150" width="10" height="50" as="geometry" />
        </mxCell>
        <mxCell id="Jt-R9U7Ucblp3WmaqdIi-16" value="" style="html=1;points=[];perimeter=orthogonalPerimeter;" parent="Jt-R9U7Ucblp3WmaqdIi-8" vertex="1">
          <mxGeometry x="45" y="250" width="10" height="50" as="geometry" />
        </mxCell>
        <mxCell id="Jt-R9U7Ucblp3WmaqdIi-12" value="3: Envia um codigo do aluno (RA)" style="html=1;verticalAlign=bottom;endArrow=block;" parent="1" target="Jt-R9U7Ucblp3WmaqdIi-8" edge="1">
          <mxGeometry width="80" relative="1" as="geometry">
            <mxPoint x="351" y="140" as="sourcePoint" />
            <mxPoint x="495.5" y="140" as="targetPoint" />
            <Array as="points">
              <mxPoint x="330" y="140" />
            </Array>
          </mxGeometry>
        </mxCell>
        <mxCell id="Jt-R9U7Ucblp3WmaqdIi-13" value=":Catraca" style="shape=umlLifeline;perimeter=lifelinePerimeter;whiteSpace=wrap;html=1;container=1;collapsible=0;recursiveResize=0;outlineConnect=0;" parent="1" vertex="1">
          <mxGeometry x="760" y="40" width="100" height="370" as="geometry" />
        </mxCell>
        <mxCell id="Jt-R9U7Ucblp3WmaqdIi-15" value="" style="html=1;points=[];perimeter=orthogonalPerimeter;" parent="Jt-R9U7Ucblp3WmaqdIi-13" vertex="1">
          <mxGeometry x="45" y="150" width="10" height="50" as="geometry" />
        </mxCell>
        <mxCell id="gciB_Id87dPa8qDstbcZ-1" value="5: Emite código de entrada e saída" style="html=1;verticalAlign=bottom;endArrow=block;" edge="1" parent="1" source="Jt-R9U7Ucblp3WmaqdIi-15" target="Jt-R9U7Ucblp3WmaqdIi-16">
          <mxGeometry x="0.4724" width="80" relative="1" as="geometry">
            <mxPoint x="820.5" y="218" as="sourcePoint" />
            <mxPoint x="570.5" y="268" as="targetPoint" />
            <Array as="points">
              <mxPoint x="850" y="218" />
              <mxPoint x="850" y="290" />
            </Array>
            <mxPoint as="offset" />
          </mxGeometry>
        </mxCell>
        <mxCell id="gciB_Id87dPa8qDstbcZ-3" value="6: Retorna a liberação por relatório" style="html=1;verticalAlign=bottom;endArrow=open;dashed=1;endSize=8;" edge="1" parent="1" source="Jt-R9U7Ucblp3WmaqdIi-8" target="gciB_Id87dPa8qDstbcZ-2">
          <mxGeometry relative="1" as="geometry">
            <mxPoint x="540" y="330" as="sourcePoint" />
            <mxPoint x="460" y="330" as="targetPoint" />
          </mxGeometry>
        </mxCell>
        <mxCell id="gciB_Id87dPa8qDstbcZ-4" value="7: Emite o relatório de registros" style="html=1;verticalAlign=bottom;endArrow=open;dashed=1;endSize=8;" edge="1" parent="1" target="Jt-R9U7Ucblp3WmaqdIi-2">
          <mxGeometry relative="1" as="geometry">
            <mxPoint x="324.5" y="300" as="sourcePoint" />
            <mxPoint x="100" y="300" as="targetPoint" />
          </mxGeometry>
        </mxCell>
      </root>
    </mxGraphModel>
  </diagram>
</mxfile>
